<svg enable-background="new 0 0 3500 3500" viewBox="0 0 3500 3500" xmlns="http://www.w3.org/2000/svg" xmlns:xlink="http://www.w3.org/1999/xlink"><linearGradient id="a"><stop offset=".1" stop-color="#194aad"/><stop offset=".5" stop-color="#248fcb"/><stop offset=".8" stop-color="#2bbfdf"/></linearGradient><linearGradient id="b" gradientTransform="matrix(1 0 0 -1 0 2554)" gradientUnits="userSpaceOnUse" x1="1480.3448" x2="1252.8894" xlink:href="#a" y1="249.4631" y2="1538.5121"/><linearGradient id="c" gradientTransform="matrix(-1 0 0 1 5851.79 2174.8301)" gradientUnits="userSpaceOnUse" x1="3511.1472" x2="3811.9246" xlink:href="#a" y1="-1272.6575" y2="432.9416"/><path d="m1750 0c966.5 0 1750 783.5 1750 1750s-783.5 1750-1750 1750-1750-783.5-1750-1750 783.5-1750 1750-1750z" fill="#00467a"/><path d="m762.6 1521.6c-35.1 0-50.7 15.6-50.7 46.8v803.7c0 35.1 15.6 46.8 50.7 46.8 386.3 3.9 858.3-339.4 1248.5-608.6v-928.6c-386.2 265.3-870 643.8-1248.5 639.9z" fill="url(#b)"/><path d="m2795.3 1884.4c35.1 0 50.7-15.6 50.7-46.8 0 0 0-702.3 0-803.7 0-35.1-15.6-46.8-50.7-46.8-390.2-3.9-858.3 339.4-1248.5 608.6v924.7c386.3-265.3 870.1-643.8 1248.5-636z" fill="url(#c)"/><path d="m2011.1 1810.3v-530.6c-160 101.4-319.9 210.7-468.2 312.1v530.6c163.9-101.4 320-210.7 468.2-312.1z" fill="#194aad"/></svg>