<svg enable-background="new 0 0 513 512" viewBox="0 0 513 512" xmlns="http://www.w3.org/2000/svg" xmlns:xlink="http://www.w3.org/1999/xlink"><clipPath id="a"><path d="m0 0h512v512h-512z"/></clipPath><g clip-path="url(#a)"><path d="m30.3 0h451.3c16.8 0 30.4 13.6 30.4 30.4v451.3c0 16.8-13.6 30.4-30.4 30.4h-451.3c-16.8-.1-30.3-13.7-30.3-30.5v-451.2c0-16.8 13.5-30.4 30.3-30.4z" fill="#fff"/><path d="m391 271.8c0 20.5-4.7 39.4-14.1 56.6-9.4 16.8-23.9 30.5-43.4 40.9s-43.8 15.7-72.7 15.7h-53.5v127.2h-86.3v-354.5h139.9c28.3 0 52.2 4.9 71.7 14.6 19.5 9.8 34.2 23.2 43.9 40.4 9.6 17.2 14.5 36.9 14.5 59.1zm-136.8 44.4c16.5 0 28.8-3.9 36.9-11.6s12.1-18.7 12.1-32.8-4-25.1-12.1-32.8-20.4-11.6-36.9-11.6h-47v88.9h47z"/><path d="m391 67.9h-270.1v57h270.1z" fill="#e59636"/></g></svg>