<svg fill="none" height="281" viewBox="0 0 313 281" width="313" xmlns="http://www.w3.org/2000/svg" xmlns:xlink="http://www.w3.org/1999/xlink"><linearGradient id="a" gradientUnits="userSpaceOnUse" x1="26.415" x2="283.735" y1="287.059" y2="-2.49574"><stop offset=".08" stop-color="#9945ff"/><stop offset=".3" stop-color="#8752f3"/><stop offset=".5" stop-color="#5497d5"/><stop offset=".6" stop-color="#43b4ca"/><stop offset=".72" stop-color="#28e0b9"/><stop offset=".97" stop-color="#19fb9b"/></linearGradient><clipPath id="b"><path d="m0 0h312.93v280.377h-312.93z"/></clipPath><g clip-path="url(#b)"><path d="m311.318 221.057-51.658 55.501c-1.123 1.206-2.482 2.167-3.991 2.824-1.51.657-3.139.996-4.785.995h-244.88681c-1.16849 0-2.31151-.342-3.28864-.984-.97712-.642-1.745779-1.556-2.21153-2.629-.4657509-1.074-.608306-2.26-.4101488-3.414.1981568-1.154.7283938-2.224 1.5255588-3.08l51.69747-55.501c1.12-1.203 2.4744-2.162 3.9794-2.819s3.1285-.997 4.7702-1h244.8735c1.168 0 2.311.342 3.288.984.978.642 1.746 1.556 2.212 2.63.466 1.073.608 2.26.41 3.413-.198 1.154-.728 2.224-1.525 3.08zm-51.658-111.763c-1.123-1.206-2.482-2.167-3.991-2.824-1.51-.657-3.139-.996-4.785-.995h-244.88681c-1.16849 0-2.31151.342-3.28864.984-.97712.642-1.745779 1.556-2.21153 2.629-.4657509 1.074-.608306 2.26-.4101488 3.414.1981568 1.154.7283938 2.224 1.5255588 3.08l51.69747 55.501c1.12 1.203 2.4744 2.162 3.9794 2.819s3.1285.997 4.7702 1h244.8735c1.168 0 2.311-.342 3.288-.984.978-.642 1.746-1.556 2.212-2.63.466-1.073.608-2.26.41-3.413-.198-1.154-.728-2.224-1.525-3.08zm-253.66281-39.8673h244.88681c1.646.0008 3.275-.3377 4.785-.9947 1.509-.6569 2.868-1.6181 3.991-2.8238l51.658-55.5013c.797-.85583 1.327-1.92634 1.525-3.07995s.056-2.34009-.41-3.41365-1.234-1.98744-2.212-2.629359c-.977-.641915-2.12-.98390147-3.288-.983941h-244.8735c-1.6417.00279866-3.2652.34314-4.7702.999953-1.505.656817-2.8594 1.616117-3.9794 2.818517l-51.68414 55.50123c-.796399.8551-1.326401 1.9243-1.525008 3.0767-.1986059 1.1524-.0571822 2.3378.406927 3.4109.46411 1.073 1.230731 1.987 2.205841 2.6299.97511.643 2.11632.9868 3.28367.9895z" fill="url(#a)"/></g></svg>