<svg fill="none" height="157.99728" viewBox="0 0 157.99989 157.99728" width="157.99989" xmlns="http://www.w3.org/2000/svg"><path d="m2 78.99888c0 42.5254 34.47309 76.9984 76.99879 76.9984 42.5261 0 77.0011-34.473 77.0011-76.9984 0-42.5257-34.475-76.99888-77.0011-76.99888-42.5257 0-76.99879 34.47308-76.99879 76.99888z" fill="#0c0c4f" stroke="#ec796b" stroke-width="4"/><g clip-rule="evenodd" fill-rule="evenodd"><path d="m44.15419 60.38758 1.9501-6.0248c.3964-1.2254 1.3635-2.1789 2.5934-2.5549l6.0543-1.8618c.838-.256.8448-1.4383.0136-1.7078l-6.0271-1.9502c-1.2231-.3963-2.1767-1.3635-2.5549-2.5933l-1.8596-6.0543c-.2559-.8358-1.4382-.8449-1.7078-.0113l-1.9501 6.0248c-.3964 1.2231-1.3635 2.1766-2.5934 2.5549l-6.0543 1.8595c-.838.2582-.8471 1.4383-.0136 1.7078l6.0271 1.9501c1.2231.3964 2.1767 1.3658 2.5549 2.5957l1.8596 6.052c.2559.8381 1.4382.8471 1.7078.0136z" fill="#fafafa"/><path d="m139.84789 56.88108c-2.495-2.791-6.391-4.3625-10.178-5.0069-3.817-.6189-7.82-.5615-11.588.108-7.625 1.2898-14.552 4.447-20.5938 8.3419-3.1375 1.9115-5.8131 4.1234-8.5851 6.3759-1.3356 1.1393-2.5533 2.3524-3.8215 3.5482l-3.4652 3.4478c-3.7652 3.9358-7.4765 7.5205-11.0673 10.4918-3.6053 2.9577-6.976 5.204-10.2978 6.7726-3.3197 1.5768-6.8718 2.5041-11.5017 2.6526-4.5892.1618-10.0188-.6665-15.8266-2.0336-5.839-1.3611-11.9706-3.3012-18.8225-4.9706 2.3908 6.6327 5.991 12.4939 10.6133 17.8515 4.6765 5.265 10.5161 10.064 18.0177 13.22 7.3933 3.226 16.6843 4.384 25.3717 2.637 8.7104-1.677 16.3542-5.708 22.5328-10.369 6.1945-4.709 11.206-10.073 15.431-15.6503 1.166-1.5407 1.783-2.4031 2.627-3.6074l2.333-3.4555c1.621-2.1374 3.097-4.571 4.702-6.6887 3.146-4.4352 6.247-8.8652 9.851-12.9467 1.814-2.0701 3.727-4.0502 5.985-5.9531 1.127-.9288 2.343-1.8378 3.691-2.6566 1.368-.8832 2.813-1.5745 4.592-2.1089z" fill="#ec796b"/><path d="m139.84789 56.88078c-2.681-6.7659-7.666-12.4614-14.356-16.6641-6.651-4.1566-15.887-6.2778-25.039-4.4696-4.5221.8745-8.9028 2.5581-12.7469 4.8001-3.8269 2.2332-7.2561 4.9213-10.2248 7.8052-1.482 1.4468-2.8272 2.956-4.1636 4.4738l-3.4638 4.4162-5.3499 7.1088c-6.8203 9.1464-14.1648 19.8654-26.2176 23.0416-11.8323 3.118-16.9642.3566-24.1859-.7843 1.3205 3.4092 2.9561 6.7199 5.1736 9.6324 2.1761 2.9715 4.7464 5.7624 7.942 8.1544 1.6149 1.149 3.3199 2.283 5.2136 3.245 1.885.929 3.9178 1.747 6.0876 2.363 4.316 1.183 9.1751 1.597 13.8798.961 4.7069-.628 9.2059-2.12 13.1385-4.101 3.9616-1.962 7.4126-4.352 10.4941-6.874 6.1255-5.0872 10.8901-10.7078 14.9148-16.3893 2.0244-2.8406 3.862-5.7348 5.5615-8.6298l2.0003-3.4466c.6115-1.0075 1.2301-2.0212 1.8587-2.9652 2.534-3.793 5.013-6.8343 8.024-9.1171 2.969-2.3417 7.104-4.072 12.629-4.4739 5.502-.4068 11.854.3446 18.83 1.9134z" fill="#fafafa"/><path d="m110.08089 113.09728c0 4.969 4.031 9 9 9 4.97 0 8.995-4.031 8.995-9s-4.025-9-8.995-9c-4.969 0-9 4.031-9 9z" fill="#ec796b"/></g></svg>