<svg height="98.980629mm" viewBox="0 0 115.49062 98.980629" width="115.49062mm" xmlns="http://www.w3.org/2000/svg"><g fill="#0f0f0f" transform="matrix(.26458333 0 0 .26458333 -32.967083 -32.993543)"><path d="m342.9 124.7c24.9 0 49 4.9 71.8 14.5 12.1 5.1 23.7 11.6 34.5 19.2l-2.3 1.2-29.6 15.1c-22.6-12.6-48.3-19.2-74.4-19.2-.4 0-.8 0-1.2 0-20.1.2-39.7 4.2-58.2 11.9-18.5 7.8-35.1 18.9-49.3 33.1-29 29.1-45 67.7-45 108.7 0 6.7.4 13.4 1.3 20.1l.3 2.1 1.9-1 255.5-130.3 52.9-27 59.9-30.6v34.6l-61.7 31.5-30.3 15.4-269.3 137.5-1.2.7-13.8 7-14 7.1v-.1l-1.3.6-44.8 22.9v-34.6l15.2-7.7c12.7-6.5 20.3-19.9 19.2-34.2-.3-4.7-.5-9.4-.5-14.1 0-24.9 4.9-49.1 14.5-71.9 9.3-22 22.6-41.7 39.5-58.7 16.9-16.9 36.6-30.3 58.6-39.6 22.7-9.3 46.9-14.2 71.8-14.2"/><path d="m561.1 223.4v34.6l-15.2 7.7c-12.7 6.5-20.3 19.9-19.2 34.2.4 4.7.5 9.5.5 14.2 0 24.9-4.9 49.1-14.5 71.9-9.3 22-22.6 41.7-39.5 58.7s-36.7 30.3-58.6 39.6c-22.7 9.6-46.9 14.5-71.8 14.5s-49-4.9-71.8-14.5c-12.2-5.2-23.8-11.7-34.6-19.3l30.6-15.6 1.2-.6c22.6 12.6 48.4 19.3 74.6 19.3h1.1c20.1-.1 39.7-4.1 58.2-11.9s35.1-18.9 49.3-33.1c29-29 45-67.7 45-108.7 0-6.7-.4-13.5-1.3-20.2l-.3-2.1-1.9 1-255.7 130.1-52.9 27-59.7 30.4v-34.6l61.5-31.4 30.3-15.4z"/></g></svg>