<svg width="105" height="105" viewBox="0 0 105 105" fill="none" xmlns="http://www.w3.org/2000/svg">
<circle cx="52.355" cy="52.355" r="52.355" fill="white"/>
<path d="M26.1426 39.6382C27.1525 39.8396 28.199 39.6214 29.0522 39.0315C29.9055 38.4415 30.4956 37.5281 30.693 36.4919L30.6953 36.4925C30.7408 36.2681 31.0496 35.3748 31.4994 34.8323C31.7223 34.5521 31.9493 34.3541 32.2038 34.218C32.4648 34.0843 32.7641 33.9733 33.3544 33.9672C33.6764 33.9776 33.9613 34.0414 34.6364 34.5263C35.6311 35.2314 36.9704 36.8787 38.6975 38.6248C39.5775 39.4917 40.5913 40.3947 41.8894 41.1366C43.175 41.876 44.8011 42.4222 46.5688 42.4155H46.6202C49.9184 42.4155 52.3994 41.5743 54.0614 40.0073C55.4713 38.6812 55.9074 37.1393 56.0155 36.2963C56.135 36.056 56.2789 35.8126 56.442 35.6158C56.6661 35.3356 56.8931 35.1388 57.1482 35.0009C57.4074 34.8678 57.7085 34.7575 58.2981 34.7513C58.6195 34.7618 58.9063 34.8249 59.5796 35.3105C60.5742 36.0137 61.9142 37.6622 63.6419 39.4083C64.5218 40.2758 65.5368 41.1783 66.8344 41.9201C68.12 42.6607 69.7461 43.2057 71.5138 43.1996H71.5658C74.864 43.1996 77.345 42.3584 79.007 40.7908C80.6833 39.2133 80.9879 37.3189 80.9945 36.674C81.0155 36.1511 80.9359 35.6292 80.7603 35.138C80.5847 34.6467 80.3165 34.1958 79.9711 33.8109C79.6256 33.4261 79.2097 33.1148 78.747 32.8949C78.2843 32.6751 77.784 32.5509 77.2745 32.5295C76.4781 32.4955 75.6907 32.714 75.0195 33.1553C74.3483 33.5965 73.8257 34.2392 73.5229 34.996C73.1985 35.0983 72.5694 35.2302 71.5138 35.2289C71.1422 35.2185 70.8328 35.14 70.1517 34.6557C69.1469 33.9525 67.8117 32.3192 66.1044 30.5812C65.2345 29.7192 64.2339 28.8185 62.9507 28.0737C61.6794 27.3306 60.0623 26.7751 58.2993 26.7831C56.2807 26.7733 54.4252 27.3551 52.9932 28.2643C50.8253 29.6376 49.6418 31.5228 48.9596 32.9618C48.7626 33.3831 48.5871 33.8147 48.4339 34.2547C48.0808 34.3479 47.4864 34.4479 46.5694 34.4466C46.1978 34.4362 45.8884 34.3571 45.2074 33.874C44.2031 33.1702 42.8673 31.5363 41.16 29.7995C40.2896 28.9356 39.2895 28.0363 38.0057 27.2907C36.735 26.5477 35.1173 25.9929 33.355 26.0002C31.3346 25.9873 29.4802 26.5698 28.0483 27.4783C25.8803 28.851 24.6963 30.7363 24.014 32.1758C23.333 33.6337 23.1167 34.7391 23.0713 34.9659C22.974 35.4797 22.9763 36.008 23.078 36.5209C23.1797 37.0337 23.3788 37.521 23.664 37.9549C23.9492 38.3888 24.3148 38.7607 24.7401 39.0495C25.1654 39.3384 25.642 39.5384 26.1426 39.6382ZM26.142 57.0381C27.152 57.2396 28.1987 57.0215 29.0522 56.4317C29.9057 55.8419 30.4962 54.9286 30.6942 53.8924H30.6953C30.7408 53.668 31.0496 52.7741 31.5 52.2327C31.7229 51.9526 31.9499 51.7558 32.2038 51.6184C32.4642 51.486 32.7653 51.3738 33.355 51.3683C33.6764 51.3775 33.9625 51.4419 34.637 51.9262C35.6305 52.6319 36.971 54.2786 38.6981 56.0246C39.5787 56.8915 40.5936 57.7928 41.8912 58.5352C43.1678 59.2697 44.7802 59.8141 46.5336 59.8141H46.57C49.8945 59.8227 52.3923 58.9822 54.0626 57.4065C55.4707 56.0817 55.908 54.5416 56.0167 53.698C56.1337 53.4549 56.2772 53.2262 56.4444 53.0163C56.6684 52.7361 56.8955 52.5387 57.1505 52.4013C57.4098 52.2683 57.7109 52.1567 58.3005 52.1518C58.6219 52.1604 58.9087 52.2254 59.5826 52.7109C60.576 53.4142 61.916 55.0615 63.6437 56.8076C64.5236 57.6745 65.5386 58.5775 66.8362 59.3194C68.1218 60.0593 69.7479 60.605 71.5156 60.5982H71.5676C74.8658 60.5982 77.3456 59.7571 79.0088 58.1907C80.6851 56.6138 80.9897 54.7182 80.9963 54.0738C81.0385 53.018 80.6703 51.9882 79.9727 51.211C79.2751 50.4337 78.3051 49.9727 77.2763 49.9294C76.48 49.8955 75.6929 50.1138 75.0217 50.5549C74.3505 50.9959 73.8278 51.6382 73.5246 52.3946C73.2009 52.497 72.5712 52.6288 71.5156 52.6276C71.144 52.6171 70.8346 52.5387 70.1535 52.0543C69.1487 51.3505 67.8135 49.7185 66.1062 47.9804C65.2351 47.1172 64.2357 46.2172 62.9525 45.4729C61.6812 44.7298 60.0629 44.1744 58.3011 44.1811C56.2825 44.1719 54.427 44.7544 52.995 45.663C50.8271 47.0363 49.6436 48.9209 48.9614 50.3592C48.7646 50.7805 48.5893 51.2121 48.4363 51.6522C48.0832 51.7453 47.4888 51.8453 46.5712 51.8447C46.2008 51.8342 45.8908 51.7552 45.2097 51.2714C44.2049 50.5676 42.8691 48.935 41.1618 47.1969C40.2908 46.3337 39.2913 45.4337 38.0087 44.6888C36.7368 43.9469 35.1197 43.3909 33.3568 43.3976C31.3376 43.389 29.4826 43.9709 28.0513 44.8794C25.8815 46.2515 24.6999 48.1367 24.017 49.5763C23.3354 51.0342 23.1203 52.1396 23.0737 52.367C22.976 52.8805 22.9778 53.4087 23.0792 53.9215C23.1805 54.4342 23.3794 54.9214 23.6643 55.3553C23.9493 55.7891 24.3148 56.161 24.7399 56.4498C25.1651 56.7385 25.6415 56.9384 26.142 57.0381ZM77.2739 67.3293C76.4775 67.2957 75.6904 67.5144 75.0192 67.9556C74.3481 68.3968 73.8255 69.0392 73.5223 69.7957C73.1985 69.8975 72.5694 70.0305 71.5132 70.0293C71.1428 70.0176 70.8322 69.9398 70.1523 69.456C69.1475 68.7516 67.8111 67.119 66.1038 65.3803C65.2339 64.5171 64.2345 63.6177 62.9513 62.8722C61.68 62.1291 60.0617 61.5743 58.2999 61.5804C56.2801 61.5718 54.4258 62.1542 52.9927 63.0628C50.8247 64.4355 49.6424 66.3207 48.959 67.759C48.7617 68.1809 48.586 68.6131 48.4327 69.0539C48.0796 69.1464 47.4858 69.2464 46.5694 69.2458C46.199 69.2335 45.8896 69.1562 45.2079 68.6725C44.2031 67.9687 42.8679 66.3348 41.16 64.5974C40.2896 63.7348 39.2901 62.8341 38.0069 62.088C36.7356 61.3456 35.1179 60.7895 33.355 60.7975C31.3358 60.7883 29.4808 61.3701 28.0483 62.2793C25.8797 63.652 24.6975 65.5366 24.0152 66.9761C23.3336 68.4334 23.1179 69.5394 23.0719 69.7663C22.8754 70.8037 23.0885 71.8788 23.6644 72.755C24.2402 73.6313 25.1316 74.2369 26.1426 74.4386C27.1525 74.64 28.1991 74.4219 29.0525 73.8321C29.9059 73.2423 30.4964 72.329 30.6942 71.2928L30.6965 71.2934C30.7425 71.0684 31.0508 70.1752 31.5 69.632C31.7235 69.3518 31.9505 69.1556 32.205 69.0177C32.4654 68.8847 32.7653 68.7731 33.355 68.7682C33.6758 68.7774 33.9625 68.8417 34.6364 69.3267C35.6311 70.0305 36.9716 71.6785 38.6981 73.4257C39.5781 74.292 40.5925 75.1951 41.8906 75.9375C43.1768 76.6769 44.8023 77.2232 46.5694 77.2164H46.6214C49.9202 77.2164 52.4012 76.3753 54.0632 74.8076C55.4713 73.4815 55.9086 71.9396 56.0173 71.0973C56.1342 70.8543 56.2777 70.6258 56.445 70.4161C56.6673 70.1359 56.8955 69.9385 57.1494 69.8012C57.4098 69.6682 57.7097 69.5566 58.3005 69.5517C58.6219 69.5609 58.9075 69.6253 59.582 70.1096C60.5754 70.814 61.9154 72.4626 63.6431 74.2087C64.523 75.0756 65.538 75.9786 66.8356 76.7204C68.1212 77.461 69.7473 78.0061 71.515 78H71.567C74.8658 78 77.348 77.1588 79.0094 75.5905C80.6845 74.0137 80.9903 72.118 80.9969 71.4737C81.038 70.4176 80.669 69.388 79.971 68.611C79.2729 67.8339 78.3029 67.3729 77.2739 67.3293Z" fill="url(#paint0_linear_1143_65488)"/>
<defs>
<linearGradient id="paint0_linear_1143_65488" x1="22.2955" y1="25.717" x2="75.3398" y2="49.8192" gradientUnits="userSpaceOnUse">
<stop stop-color="#288B58"/>
<stop offset="1" stop-color="#1522F1"/>
</linearGradient>
</defs>
</svg>
