<svg height="1000pt" preserveAspectRatio="xMidYMid meet" viewBox="0 0 1000 1000" width="1000pt" xmlns="http://www.w3.org/2000/svg"><path d="m0 5000v-5000h5000 5000v5000 5000h-5000-5000zm5694 3260c222-26 402-59 610-111 505-126 886-302 1249-576 133-100 295-243 314-277 23-40 16-84-19-120-18-19-327-282-686-585-475-401-659-551-677-551-38 0-75 43-155 179-155 264-430 584-620 723-310 226-626 338-955 338-351 0-643-119-885-360-246-245-417-606-475-1001-22-147-31-541-16-714 55-643 267-1129 680-1557 332-345 718-587 1199-752 332-114 635-171 975-185l157-6v1036 1037l-125 330c-69 182-125 344-125 360 0 38 39 79 81 87 19 3 494 5 1056 3l1021-3 26-24c49-46 47-53-104-417l-140-339-3-1483-2-1484-28-24c-16-14-41-24-58-24-18 0-193 82-463 217l-434 217-129-61c-726-345-1721-460-2623-302-552 96-1129 355-1564 702-131 105-359 333-466 467-378 472-617 1076-680 1715-14 141-14 479 0 620 63 638 303 1244 680 1715 107 133 336 363 460 462 551 437 1229 700 1955 757 77 6 158 13 180 15s168 3 325 1c208-3 333-9 464-25z" transform="matrix(.1 0 0 -.1 0 1000)"/></svg>