<svg viewBox="0 0 128 128" xmlns="http://www.w3.org/2000/svg"><path d="m43.1 105.47 14-16.13a4.15 4.15 0 0 0 0-5.45l-3-3.45-21.75 25zm72.09-82.94h-10.73l-43.46 50a4.14 4.14 0 0 0 0 5.47l23.89 27.5h10.74l-24.49-28.21a3.1 3.1 0 0 1 0-4.08z"/><path d="m114.29 105.47-31.54-36.28-2.75 3.12a4.15 4.15 0 0 0 0 5.45l24.08 27.71zm-28.74-82.94-14.8 17a4.16 4.16 0 0 0 0 5.44l2.72 3.13 22.25-25.6zm-53.55 0 31.88 36.64 2.86-3.29a4.16 4.16 0 0 0 0-5.46l-24.49-27.89zm-19.19 0 34.6 39.81a3.13 3.13 0 0 1 0 4.08l-33.94 39.05h10.16l33.64-38.7a4.16 4.16 0 0 0 0-5.44l-33.73-38.8z"/></svg>